<svg xmlns="http://www.w3.org/2000/svg" viewBox="0 0 1280 720" width="1280" height="720">
  <defs>
    <radialGradient id="av1" cx="30%" cy="35%" r="55%"><stop offset="0%" stop-color="#a855f7" stop-opacity="0.2"/><stop offset="100%" stop-color="transparent" stop-opacity="0"/></radialGradient>
    <radialGradient id="av2" cx="70%" cy="65%" r="50%"><stop offset="0%" stop-color="#6366f1" stop-opacity="0.15"/><stop offset="100%" stop-color="transparent" stop-opacity="0"/></radialGradient>
    <linearGradient id="avb" x1="0" y1="0" x2="1" y2="0"><stop offset="0%" stop-color="#a855f7" stop-opacity="0.6"/><stop offset="100%" stop-color="#6366f1" stop-opacity="0.3"/></linearGradient>
  </defs>
  <rect width="1280" height="720" fill="#0a0a0a"/><rect width="1280" height="720" fill="url(#av1)"/><rect width="1280" height="720" fill="url(#av2)"/>
  <rect x="0" y="0" width="1280" height="3" fill="url(#avb)"/>
  <!-- Play button -->
  <circle cx="640" cy="260" r="35" fill="none" stroke="#a855f7" stroke-width="2" opacity="0.4"/>
  <polygon points="630,245 630,275 655,260" fill="#a855f7" opacity="0.6"/>
  <text x="640" y="340" text-anchor="middle" font-family="'Inter',sans-serif" font-size="58" font-weight="800" fill="#fff" letter-spacing="-1">AI Video</text>
  <text x="640" y="390" text-anchor="middle" font-family="'Inter',sans-serif" font-size="20" fill="#8a8a8e" letter-spacing="4">MOTION GRAPHICS</text>
  <circle cx="580" cy="440" r="4" fill="#a855f7" opacity="0.6"/><circle cx="640" cy="440" r="5" fill="#a855f7" opacity="0.8"/><circle cx="700" cy="440" r="4" fill="#6366f1" opacity="0.6"/>
  <rect x="460" y="470" width="110" height="30" rx="15" fill="#a855f7" fill-opacity="0.1" stroke="#a855f7" stroke-opacity="0.3" stroke-width="1"/><text x="515" y="490" text-anchor="middle" font-family="'Inter',sans-serif" font-size="12" fill="#a855f7" font-weight="600">AI Video</text>
  <rect x="590" y="470" width="140" height="30" rx="15" fill="#6366f1" fill-opacity="0.1" stroke="#6366f1" stroke-opacity="0.25" stroke-width="1"/><text x="660" y="490" text-anchor="middle" font-family="'Inter',sans-serif" font-size="12" fill="#6366f1" font-weight="600">Motion Graphics</text>
  <rect x="750" y="470" width="120" height="30" rx="15" fill="#a855f7" fill-opacity="0.08" stroke="#a855f7" stroke-opacity="0.2" stroke-width="1"/><text x="810" y="490" text-anchor="middle" font-family="'Inter',sans-serif" font-size="12" fill="#a855f7" font-weight="600">6+ Videos</text>
</svg>
