<svg xmlns="http://www.w3.org/2000/svg" viewBox="0 0 1280 720" width="1280" height="720">
  <defs>
    <radialGradient id="rl1" cx="30%" cy="35%" r="55%"><stop offset="0%" stop-color="#f43f5e" stop-opacity="0.2"/><stop offset="100%" stop-color="transparent" stop-opacity="0"/></radialGradient>
    <radialGradient id="rl2" cx="70%" cy="65%" r="50%"><stop offset="0%" stop-color="#ec4899" stop-opacity="0.15"/><stop offset="100%" stop-color="transparent" stop-opacity="0"/></radialGradient>
    <linearGradient id="rlb" x1="0" y1="0" x2="1" y2="0"><stop offset="0%" stop-color="#f43f5e" stop-opacity="0.6"/><stop offset="100%" stop-color="#ec4899" stop-opacity="0.3"/></linearGradient>
  </defs>
  <rect width="1280" height="720" fill="#0a0a0a"/><rect width="1280" height="720" fill="url(#rl1)"/><rect width="1280" height="720" fill="url(#rl2)"/>
  <rect x="0" y="0" width="1280" height="3" fill="url(#rlb)"/>
  <!-- Reel icon -->
  <circle cx="640" cy="255" r="30" fill="none" stroke="#f43f5e" stroke-width="2" opacity="0.4"/>
  <circle cx="640" cy="255" r="10" fill="#f43f5e" opacity="0.5"/>
  <circle cx="640" cy="255" r="4" fill="#f43f5e" opacity="0.8"/>
  <text x="640" y="340" text-anchor="middle" font-family="'Inter',sans-serif" font-size="58" font-weight="800" fill="#fff" letter-spacing="-1">Social Reels</text>
  <text x="640" y="390" text-anchor="middle" font-family="'Inter',sans-serif" font-size="20" fill="#8a8a8e" letter-spacing="4">BRAND MARKETING</text>
  <circle cx="580" cy="440" r="4" fill="#f43f5e" opacity="0.6"/><circle cx="640" cy="440" r="5" fill="#f43f5e" opacity="0.8"/><circle cx="700" cy="440" r="4" fill="#ec4899" opacity="0.6"/>
  <rect x="470" y="470" width="100" height="30" rx="15" fill="#f43f5e" fill-opacity="0.1" stroke="#f43f5e" stroke-opacity="0.3" stroke-width="1"/><text x="520" y="490" text-anchor="middle" font-family="'Inter',sans-serif" font-size="12" fill="#f43f5e" font-weight="600">Reels</text>
  <rect x="590" y="470" width="140" height="30" rx="15" fill="#ec4899" fill-opacity="0.1" stroke="#ec4899" stroke-opacity="0.25" stroke-width="1"/><text x="660" y="490" text-anchor="middle" font-family="'Inter',sans-serif" font-size="12" fill="#ec4899" font-weight="600">Video Editing</text>
  <rect x="750" y="470" width="110" height="30" rx="15" fill="#f43f5e" fill-opacity="0.08" stroke="#f43f5e" stroke-opacity="0.2" stroke-width="1"/><text x="805" y="490" text-anchor="middle" font-family="'Inter',sans-serif" font-size="12" fill="#f43f5e" font-weight="600">8+ Reels</text>
</svg>
